<svg id="visual" viewBox="0 0 1920 400" width="1920" height="400" xmlns="http://www.w3.org/2000/svg" xmlns:xlink="http://www.w3.org/1999/xlink" version="1.1"><rect x="0" y="0" width="1920" height="400" fill="#334155"></rect><defs><linearGradient id="grad1_0" x1="79.2%" y1="0%" x2="100%" y2="100%"><stop offset="-46%" stop-color="#3b82f6" stop-opacity="1"></stop><stop offset="146%" stop-color="#3b82f6" stop-opacity="1"></stop></linearGradient></defs><defs><linearGradient id="grad1_1" x1="79.2%" y1="0%" x2="100%" y2="100%"><stop offset="-46%" stop-color="#3b82f6" stop-opacity="1"></stop><stop offset="146%" stop-color="#3273cc" stop-opacity="1"></stop></linearGradient></defs><defs><linearGradient id="grad1_2" x1="79.2%" y1="0%" x2="100%" y2="100%"><stop offset="-46%" stop-color="#3162a3" stop-opacity="1"></stop><stop offset="146%" stop-color="#3273cc" stop-opacity="1"></stop></linearGradient></defs><defs><linearGradient id="grad1_3" x1="79.2%" y1="0%" x2="100%" y2="100%"><stop offset="-46%" stop-color="#3162a3" stop-opacity="1"></stop><stop offset="146%" stop-color="#33527b" stop-opacity="1"></stop></linearGradient></defs><defs><linearGradient id="grad1_4" x1="79.2%" y1="0%" x2="100%" y2="100%"><stop offset="-46%" stop-color="#334155" stop-opacity="1"></stop><stop offset="146%" stop-color="#33527b" stop-opacity="1"></stop></linearGradient></defs><defs><linearGradient id="grad2_0" x1="0%" y1="0%" x2="20.8%" y2="100%"><stop offset="-46%" stop-color="#3b82f6" stop-opacity="1"></stop><stop offset="146%" stop-color="#3b82f6" stop-opacity="1"></stop></linearGradient></defs><defs><linearGradient id="grad2_1" x1="0%" y1="0%" x2="20.8%" y2="100%"><stop offset="-46%" stop-color="#3273cc" stop-opacity="1"></stop><stop offset="146%" stop-color="#3b82f6" stop-opacity="1"></stop></linearGradient></defs><defs><linearGradient id="grad2_2" x1="0%" y1="0%" x2="20.8%" y2="100%"><stop offset="-46%" stop-color="#3273cc" stop-opacity="1"></stop><stop offset="146%" stop-color="#3162a3" stop-opacity="1"></stop></linearGradient></defs><defs><linearGradient id="grad2_3" x1="0%" y1="0%" x2="20.8%" y2="100%"><stop offset="-46%" stop-color="#33527b" stop-opacity="1"></stop><stop offset="146%" stop-color="#3162a3" stop-opacity="1"></stop></linearGradient></defs><defs><linearGradient id="grad2_4" x1="0%" y1="0%" x2="20.8%" y2="100%"><stop offset="-46%" stop-color="#33527b" stop-opacity="1"></stop><stop offset="146%" stop-color="#334155" stop-opacity="1"></stop></linearGradient></defs><g transform="translate(1920, 0)"><path d="M0 240C-27.5 240.8 -55.1 241.6 -74.2 228.3C-93.2 214.9 -103.9 187.3 -125.2 172.3C-146.5 157.4 -178.5 155 -190.1 138.1C-201.7 121.2 -192.9 89.7 -197.8 64.3C-202.7 38.8 -221.4 19.4 -240 0L0 0Z" fill="#334968"></path><path d="M0 192C-22 192.7 -44.1 193.3 -59.3 182.6C-74.6 171.9 -83.1 149.8 -100.2 137.9C-117.2 125.9 -142.8 124 -152.1 110.5C-161.4 97 -154.3 71.8 -158.3 51.4C-162.2 31.1 -177.1 15.5 -192 0L0 0Z" fill="#325a8f"></path><path d="M0 144C-16.5 144.5 -33 145 -44.5 137C-55.9 128.9 -62.3 112.4 -75.1 103.4C-87.9 94.4 -107.1 93 -114.1 82.9C-121 72.7 -115.7 53.8 -118.7 38.6C-121.6 23.3 -132.8 11.6 -144 0L0 0Z" fill="#316bb8"></path><path d="M0 96C-11 96.3 -22 96.7 -29.7 91.3C-37.3 85.9 -41.6 74.9 -50.1 68.9C-58.6 62.9 -71.4 62 -76 55.3C-80.7 48.5 -77.2 35.9 -79.1 25.7C-81.1 15.5 -88.5 7.8 -96 0L0 0Z" fill="#357ae1"></path><path d="M0 48C-5.5 48.2 -11 48.3 -14.8 45.7C-18.6 43 -20.8 37.5 -25 34.5C-29.3 31.5 -35.7 31 -38 27.6C-40.3 24.2 -38.6 17.9 -39.6 12.9C-40.5 7.8 -44.3 3.9 -48 0L0 0Z" fill="#3b82f6"></path></g><g transform="translate(0, 400)"><path d="M0 -240C22.9 -231.2 45.8 -222.5 70.1 -215.9C94.5 -209.3 120.2 -204.8 138.7 -190.9C157.2 -177 168.4 -153.7 183.6 -133.4C198.9 -113.1 218.2 -95.9 228.3 -74.2C238.3 -52.4 239.2 -26.2 240 0L0 0Z" fill="#334968"></path><path d="M0 -192C18.3 -185 36.7 -178 56.1 -172.7C75.6 -167.4 96.2 -163.9 111 -152.7C125.8 -141.6 134.7 -123 146.9 -106.7C159.1 -90.5 174.5 -76.7 182.6 -59.3C190.7 -41.9 191.3 -21 192 0L0 0Z" fill="#325a8f"></path><path d="M0 -144C13.7 -138.7 27.5 -133.5 42.1 -129.5C56.7 -125.6 72.1 -122.9 83.2 -114.6C94.3 -106.2 101 -92.2 110.2 -80.1C119.3 -67.9 130.9 -57.5 137 -44.5C143 -31.5 143.5 -15.7 144 0L0 0Z" fill="#316bb8"></path><path d="M0 -96C9.2 -92.5 18.3 -89 28.1 -86.4C37.8 -83.7 48.1 -81.9 55.5 -76.4C62.9 -70.8 67.4 -61.5 73.5 -53.4C79.6 -45.3 87.3 -38.4 91.3 -29.7C95.3 -21 95.7 -10.5 96 0L0 0Z" fill="#357ae1"></path><path d="M0 -48C4.6 -46.2 9.2 -44.5 14 -43.2C18.9 -41.9 24 -41 27.7 -38.2C31.4 -35.4 33.7 -30.7 36.7 -26.7C39.8 -22.6 43.6 -19.2 45.7 -14.8C47.7 -10.5 47.8 -5.2 48 0L0 0Z" fill="#3b82f6"></path></g></svg>